<?xml version="1.0" standalone="no"?>
<!DOCTYPE svg PUBLIC "-//W3C//DTD SVG 20010904//EN"
 "http://www.w3.org/TR/2001/REC-SVG-20010904/DTD/svg10.dtd">
<svg version="1.0" xmlns="http://www.w3.org/2000/svg"
 width="523.000000pt" height="512.000000pt" viewBox="0 0 523.000000 512.000000"
 preserveAspectRatio="xMidYMid meet">

<g transform="translate(0.000000,512.000000) scale(0.100000,-0.100000)"
fill="#000000" stroke="none">
<path d="M3704 5096 c-150 -48 -253 -129 -292 -227 -11 -30 -51 -187 -87 -349
-37 -162 -69 -303 -71 -312 -5 -16 -52 -18 -697 -20 l-692 -3 -45 -27 c-27
-15 -54 -42 -68 -66 -20 -36 -22 -53 -22 -197 0 -151 1 -160 25 -201 18 -31
39 -50 78 -68 l53 -26 1585 2 1585 3 41 27 c22 15 51 44 64 65 23 36 24 47 24
200 l0 161 -30 43 c-16 23 -48 52 -70 63 -39 21 -53 21 -692 24 -530 2 -653 5
-653 16 0 7 18 96 40 197 22 101 43 196 46 211 l5 27 247 3 247 3 47 27 c67
40 88 89 88 204 -1 134 -27 189 -105 225 -36 17 -69 19 -310 18 -254 0 -274
-1 -341 -23z"/>
<path d="M1920 3249 c0 -6 8 -49 17 -96 15 -69 21 -84 38 -88 11 -2 70 -8 130
-15 499 -51 1007 -253 1345 -535 393 -328 533 -759 352 -1088 l-39 -70 30 -86
c21 -59 32 -112 35 -168 l5 -83 318 0 319 0 5 23 c22 90 498 2111 509 2158
l13 59 -1538 0 c-1128 0 -1539 -3 -1539 -11z"/>
<path d="M1466 2589 c-548 -56 -1025 -233 -1251 -463 -95 -97 -129 -166 -133
-272 -5 -106 19 -164 94 -233 96 -88 -37 -81 1584 -81 1595 0 1502 -4 1580 66
73 66 79 162 17 286 -160 323 -656 596 -1242 684 -120 18 -522 27 -649 13z
m354 -221 c94 -65 111 -186 36 -262 -140 -139 -370 28 -273 199 45 80 165 112
237 63z m743 -144 c15 -8 39 -33 54 -56 75 -112 -5 -258 -142 -258 -89 0 -158
58 -172 144 -7 44 17 114 51 145 52 49 140 60 209 25z m-1473 -15 c108 -61
110 -223 3 -285 -125 -74 -274 16 -261 157 12 120 150 189 258 128z"/>
<path d="M373 1335 c-129 -28 -227 -109 -260 -212 -14 -46 -15 -61 -5 -101 25
-96 101 -171 214 -213 l63 -24 1295 -3 c867 -2 1318 1 1365 8 139 21 254 103
289 207 20 58 20 78 0 136 -34 100 -144 182 -278 206 -33 6 -133 11 -222 11
l-162 0 -223 -231 -223 -230 -230 230 -231 231 -665 -1 c-520 0 -679 -4 -727
-14z"/>
<path d="M3816 598 c29 -110 8 -317 -46 -471 l-28 -78 207 3 c201 3 207 4 262
31 67 32 118 80 156 144 23 40 29 67 44 217 10 94 18 179 19 189 0 16 -21 17
-314 17 l-313 0 13 -52z"/>
<path d="M138 551 c-33 -29 -33 -31 -32 -113 4 -196 104 -347 271 -411 l58
-22 1235 -3 c827 -2 1261 1 1315 8 186 24 309 144 351 339 23 108 19 155 -15
193 l-29 33 -1561 3 -1560 2 -33 -29z"/>
</g>
</svg>
